<svg width="187" height="40" viewBox="0 0 187 40" fill="none" xmlns="http://www.w3.org/2000/svg">
<g id="Logo">
<path id="Vector" d="M30.2254 17.828C29.72 18.3364 29.3331 18.95 29.092 19.6249C28.851 20.3 28.7618 21.0199 28.8307 21.7333L28.8067 21.7093C28.8776 22.5492 28.7643 23.3943 28.4748 24.1859C28.1854 24.9773 27.7267 25.6961 27.1308 26.2921C26.5348 26.888 25.816 27.3468 25.0244 27.6361C24.233 27.9256 23.3878 28.0389 22.548 27.968L22.572 27.992C21.5675 27.8985 20.5586 28.1171 19.6827 28.618C18.807 29.1189 18.107 29.8777 17.6783 30.7911C17.2496 31.7044 17.113 32.7276 17.2871 33.7215C17.4614 34.7152 17.9378 35.6311 18.6515 36.3441C19.3652 37.0572 20.2815 37.5328 21.2754 37.706C22.2694 37.8793 23.2924 37.7417 24.2054 37.3123C25.1183 36.8827 25.8764 36.1821 26.3766 35.3059C26.8767 34.4296 27.0944 33.4205 27 32.416L27.0254 32.44C26.9544 31.6003 27.0676 30.7551 27.3571 29.9635C27.6466 29.172 28.1054 28.4532 28.7012 27.8572C29.2972 27.2613 30.016 26.8025 30.8075 26.5132C31.5991 26.2237 32.4442 26.1104 33.284 26.1813L33.2587 26.1573C34.0792 26.2311 34.9052 26.0965 35.66 25.7661C36.4147 25.4357 37.0739 24.9201 37.5763 24.2672C38.0787 23.6143 38.4083 22.8449 38.5342 22.0308C38.6602 21.2165 38.5786 20.3837 38.297 19.6093C38.0154 18.8351 37.5428 18.1444 36.9232 17.6013C36.3036 17.0583 35.557 16.6804 34.7524 16.5028C33.9479 16.3252 33.1115 16.3535 32.3208 16.5851C31.5302 16.8168 30.8108 17.2443 30.2294 17.828H30.2254Z" fill="#394149"/>
<path id="Vector_2" d="M20.3894 24.848L20.364 24.824C21.0778 24.8959 21.7986 24.8083 22.4744 24.5675C23.1502 24.3267 23.764 23.9388 24.2715 23.4317C24.7788 22.9247 25.1674 22.3111 25.4086 21.6355C25.6499 20.9599 25.738 20.2392 25.6667 19.5253L25.692 19.5493C25.6211 18.7095 25.7344 17.8644 26.0238 17.0728C26.3132 16.2813 26.772 15.5625 27.3679 14.9665C27.9639 14.3707 28.6827 13.9119 29.4742 13.6225C30.2658 13.333 31.1108 13.2198 31.9507 13.2907L31.9254 13.2667C32.93 13.3611 33.9392 13.1431 34.8155 12.6428C35.6919 12.1425 36.3924 11.384 36.8218 10.4708C37.2511 9.55765 37.3883 8.53428 37.2147 7.54027C37.0411 6.54625 36.5651 5.63001 35.8515 4.91649C35.138 4.20299 34.2218 3.72693 33.2278 3.55331C32.2338 3.37967 31.2104 3.51688 30.2972 3.94624C29.384 4.37559 28.6256 5.07619 28.1252 5.95247C27.6248 6.82873 27.407 7.83803 27.5014 8.84267L27.4774 8.81733C27.5484 9.65719 27.4354 10.5024 27.146 11.2941C26.8567 12.0857 26.3979 12.8046 25.802 13.4007C25.206 13.9965 24.4871 14.4553 23.6955 14.7447C22.9038 15.034 22.0586 15.1471 21.2187 15.076L21.2427 15.1013C20.529 15.0295 19.808 15.1171 19.1323 15.3579C18.4566 15.5985 17.8427 15.9865 17.3352 16.4936C16.8278 17.0007 16.4394 17.6143 16.198 18.2899C15.9568 18.9655 15.8687 19.6861 15.94 20.4L15.916 20.376C15.9867 21.2157 15.8732 22.0608 15.5838 22.8523C15.2942 23.6436 14.8355 24.3624 14.2396 24.9583C13.6437 25.5541 12.925 26.0128 12.1336 26.3024C11.3422 26.5919 10.4971 26.7053 9.65738 26.6347L9.68138 26.6587C8.67674 26.5643 7.66744 26.7821 6.79116 27.2825C5.9149 27.7829 5.2143 28.5413 4.78495 29.4545C4.35559 30.3677 4.21836 31.3911 4.392 32.3851C4.56564 33.3791 5.0417 34.2953 5.7552 35.0088C6.46872 35.7224 7.38496 36.1984 8.37898 36.372C9.37299 36.5456 10.3964 36.4084 11.3095 35.9791C12.2227 35.5497 12.9812 34.8492 13.4815 33.9729C13.9819 33.0965 14.1998 32.0873 14.1054 31.0827L14.1307 31.1067C14.0598 30.2668 14.1731 29.4217 14.4626 28.6301C14.7519 27.8387 15.2107 27.1199 15.8066 26.5239C16.4026 25.928 17.1214 25.4692 17.9128 25.1799C18.7044 24.8904 19.5495 24.7771 20.3894 24.848Z" fill="#006B6A"/>
<path id="Vector_3" d="M11.4532 22.172C11.9586 21.6637 12.3455 21.0501 12.5864 20.3751C12.8272 19.7 12.9161 18.98 12.8466 18.2667L12.8719 18.2907C12.801 17.4507 12.9142 16.6052 13.2039 15.8135C13.4935 15.0217 13.9524 14.3028 14.5487 13.7068C15.145 13.1108 15.864 12.6522 16.6559 12.3629C17.4478 12.0736 18.2933 11.9607 19.1333 12.032L19.1079 12.008C20.1122 12.1021 21.1211 11.8841 21.997 11.3838C22.8729 10.8835 23.573 10.1252 24.0022 9.21231C24.4312 8.29943 24.5683 7.27643 24.3947 6.28279C24.2211 5.28915 23.7451 4.37326 23.0319 3.66001C22.3187 2.94675 21.4027 2.47086 20.4091 2.29723C19.4155 2.12359 18.3925 2.26069 17.4797 2.68978C16.5667 3.11887 15.8084 3.8191 15.3082 4.69497C14.8078 5.57083 14.5898 6.57971 14.6839 7.58401L14.6599 7.56001C14.7308 8.39981 14.6175 9.24497 14.3281 10.0365C14.0386 10.828 13.5799 11.5468 12.984 12.1428C12.3881 12.7387 11.6692 13.1974 10.8777 13.4868C10.0862 13.7763 9.24105 13.8896 8.40125 13.8187L8.42525 13.8427C7.60468 13.7691 6.7788 13.9039 6.02416 14.2344C5.26952 14.5649 4.61052 15.0807 4.10824 15.7337C3.60596 16.3867 3.27665 17.156 3.15081 17.9701C3.02498 18.7844 3.1067 19.6172 3.3884 20.3913C3.67009 21.1656 4.14266 21.8561 4.7623 22.3991C5.38194 22.9421 6.12861 23.3199 6.93312 23.4975C7.73761 23.6749 8.57392 23.6465 9.36454 23.4149C10.1552 23.1832 10.8745 22.7557 11.4559 22.172H11.4532Z" fill="#394149"/>
<path id="Vector_4" d="M52.756 8.87334H56.716V28.144H52.756V8.87334Z" fill="#394149"/>
<path id="Vector_5" d="M58.9587 21.5453C58.9532 20.1605 59.3588 18.8051 60.1242 17.6509C60.8895 16.4968 61.9802 15.5957 63.258 15.062C64.5359 14.5281 65.9433 14.3856 67.3023 14.6524C68.6612 14.9192 69.9104 15.5832 70.8916 16.5605C71.8728 17.5377 72.5419 18.7843 72.8141 20.1421C73.0864 21.5 72.9495 22.9081 72.4208 24.1881C71.8922 25.468 70.9955 26.5624 69.8444 27.3323C68.6932 28.1023 67.3396 28.5133 65.9547 28.5133C65.0355 28.5239 64.1234 28.3509 63.2716 28.0048C62.4199 27.6587 61.6457 27.1463 60.9944 26.4976C60.3429 25.8488 59.8275 25.0767 59.478 24.2264C59.1284 23.3761 58.9519 22.4647 58.9587 21.5453ZM68.9907 21.5453C68.9742 20.9484 68.782 20.3696 68.4384 19.8812C68.0947 19.3929 67.6147 19.0167 67.0584 18.7997C66.502 18.5827 65.8941 18.5344 65.3105 18.6611C64.7269 18.7877 64.1936 19.0835 63.7772 19.5116C63.361 19.9396 63.0799 20.4809 62.9696 21.0679C62.8592 21.6547 62.9242 22.2611 63.1566 22.8112C63.389 23.3613 63.7783 23.8307 64.2759 24.1607C64.7736 24.4907 65.3576 24.6667 65.9547 24.6667C66.3636 24.6776 66.7704 24.6036 67.1495 24.4495C67.5284 24.2953 67.8714 24.0644 68.1566 23.7712C68.4418 23.4779 68.6632 23.1287 68.8067 22.7456C68.9503 22.3625 69.0129 21.9539 68.9907 21.5453Z" fill="#394149"/>
<path id="Vector_6" d="M88.7333 14.9453V27.4787C88.7333 31.9133 85.2747 33.788 81.764 33.788C80.528 33.8805 79.2903 33.6308 78.1867 33.0664C77.0832 32.5019 76.1564 31.6444 75.508 30.588L78.8867 28.6347C79.1592 29.1853 79.5935 29.6396 80.1312 29.9368C80.6691 30.2339 81.2848 30.3597 81.896 30.2973C82.2867 30.3515 82.6845 30.3171 83.0601 30.1967C83.4356 30.0763 83.7793 29.8729 84.0657 29.6019C84.3521 29.3307 84.5739 28.9987 84.7147 28.6301C84.8553 28.2617 84.9113 27.8664 84.8787 27.4733V26.2667C84.4149 26.834 83.8248 27.2848 83.1553 27.5828C82.4859 27.8808 81.756 28.0177 81.024 27.9827C79.2824 27.9277 77.6305 27.1973 76.418 25.9459C75.2055 24.6945 74.5275 23.0204 74.5275 21.278C74.5275 19.5356 75.2055 17.8615 76.418 16.6101C77.6305 15.3587 79.2824 14.6283 81.024 14.5733C81.756 14.5383 82.4859 14.6752 83.1553 14.9732C83.8248 15.2712 84.4149 15.722 84.8787 16.2893V14.9427L88.7333 14.9453ZM84.88 21.28C84.9067 20.6419 84.7416 20.0103 84.4063 19.4667C84.0709 18.9229 83.5805 18.4921 82.9983 18.2296C82.416 17.9669 81.7685 17.8847 81.1391 17.9932C80.5096 18.1017 79.9271 18.3961 79.4663 18.8387C79.0056 19.2811 78.6879 19.8512 78.5539 20.4757C78.42 21.1003 78.476 21.7507 78.7149 22.3431C78.9537 22.9355 79.3644 23.4429 79.894 23.8C80.4236 24.1571 81.048 24.3475 81.6867 24.3467C82.1028 24.3757 82.5203 24.3173 82.9124 24.1752C83.3045 24.0331 83.6625 23.8103 83.9633 23.5215C84.2641 23.2325 84.5012 22.8839 84.6591 22.4977C84.8169 22.1117 84.8923 21.6969 84.88 21.28Z" fill="#394149"/>
<path id="Vector_7" d="M90.9759 21.5453C90.9704 20.1605 91.3759 18.8051 92.1414 17.6509C92.9067 16.4968 93.9974 15.5957 95.2752 15.062C96.5531 14.5281 97.9606 14.3856 99.3195 14.6524C100.678 14.9192 101.928 15.5832 102.909 16.5605C103.89 17.5377 104.559 18.7843 104.831 20.1421C105.104 21.5 104.967 22.9081 104.438 24.1881C103.909 25.468 103.013 26.5624 101.862 27.3323C100.71 28.1023 99.3568 28.5133 97.9719 28.5133C97.0527 28.5239 96.1404 28.3509 95.2888 28.0048C94.4371 27.6587 93.663 27.1463 93.0116 26.4976C92.3602 25.8488 91.8447 25.0767 91.4952 24.2264C91.1456 23.3761 90.9691 22.4647 90.9759 21.5453ZM101.008 21.5453C100.991 20.9484 100.799 20.3696 100.456 19.8812C100.112 19.3929 99.6319 19.0167 99.0756 18.7997C98.5192 18.5827 97.9112 18.5344 97.3278 18.6611C96.7442 18.7877 96.2108 19.0835 95.7944 19.5116C95.3782 19.9396 95.0971 20.4809 94.9867 21.0679C94.8763 21.6547 94.9414 22.2611 95.1738 22.8112C95.4062 23.3613 95.7955 23.8307 96.2931 24.1607C96.7908 24.4907 97.3747 24.6667 97.9719 24.6667C98.3808 24.6776 98.7876 24.6036 99.1666 24.4495C99.5456 24.2953 99.8886 24.0644 100.174 23.7712C100.459 23.4779 100.68 23.1287 100.824 22.7456C100.967 22.3625 101.03 21.9539 101.008 21.5453Z" fill="#394149"/>
<path id="Vector_8" d="M106.815 11.408C106.815 10.9381 106.954 10.4787 107.215 10.088C107.476 9.69724 107.847 9.39269 108.281 9.21287C108.716 9.03303 109.193 8.98597 109.654 9.07765C110.115 9.16933 110.538 9.39563 110.871 9.72792C111.203 10.0602 111.429 10.4836 111.521 10.9445C111.613 11.4054 111.566 11.8831 111.386 12.3173C111.206 12.7514 110.901 13.1225 110.511 13.3836C110.12 13.6447 109.661 13.784 109.191 13.784C108.562 13.7777 107.962 13.5255 107.517 13.0812C107.073 12.6369 106.821 12.0362 106.815 11.408ZM107.215 14.9453H111.176V28.1453H107.209L107.215 14.9453Z" fill="#394149"/>
<path id="Vector_9" d="M128.275 21.5453C128.32 22.4177 128.193 23.2905 127.901 24.1136C127.608 24.9367 127.155 25.6937 126.569 26.3413C125.983 26.9888 125.274 27.5141 124.484 27.8869C123.694 28.2596 122.838 28.4725 121.965 28.5133C121.231 28.5533 120.498 28.4296 119.818 28.1511C119.138 27.8724 118.528 27.446 118.033 26.9027V33.424H114.073V14.9453H118.033V16.1853C118.528 15.6424 119.138 15.2163 119.818 14.938C120.498 14.6596 121.232 14.536 121.965 14.576C122.838 14.6167 123.694 14.8295 124.485 15.2023C125.275 15.5751 125.983 16.1004 126.57 16.7481C127.156 17.3959 127.609 18.1532 127.901 18.9765C128.194 19.7997 128.321 20.6728 128.275 21.5453ZM124.315 21.5453C124.299 20.9276 124.102 20.3281 123.747 19.8219C123.393 19.3157 122.897 18.9253 122.322 18.6997C121.746 18.474 121.117 18.4229 120.513 18.5531C119.909 18.6831 119.357 18.9884 118.925 19.4308C118.494 19.8733 118.203 20.4331 118.088 21.0404C117.973 21.6476 118.04 22.2751 118.28 22.8445C118.52 23.414 118.923 23.8999 119.438 24.2416C119.953 24.5832 120.557 24.7655 121.175 24.7653C121.599 24.7843 122.022 24.7132 122.417 24.5569C122.812 24.4008 123.17 24.1628 123.466 23.8588C123.763 23.5547 123.991 23.1915 124.138 22.7928C124.284 22.3941 124.344 21.9689 124.315 21.5453Z" fill="#394149"/>
<path id="Vector_10" d="M140.495 24.184C140.495 27.22 137.856 28.5133 135.005 28.5133C133.853 28.6176 132.697 28.3741 131.685 27.814C130.673 27.254 129.853 26.4033 129.329 25.372L132.76 23.4187C132.899 23.8953 133.197 24.3101 133.604 24.5935C134.012 24.8769 134.505 25.012 135 24.976C135.949 24.976 136.425 24.6853 136.425 24.1587C136.425 22.7053 129.931 23.472 129.931 18.9053C129.931 16.0267 132.36 14.576 135.105 14.576C136.137 14.5433 137.159 14.7881 138.064 15.2848C138.969 15.7816 139.725 16.512 140.252 17.4L136.873 19.2213C136.725 18.8756 136.479 18.5811 136.164 18.3745C135.849 18.168 135.481 18.0587 135.105 18.06C134.419 18.06 133.996 18.3267 133.996 18.7987C134.001 20.304 140.495 19.3 140.495 24.184Z" fill="#394149"/>
<path id="Vector_11" d="M154.96 14.9453V28.1453H151V26.904C150.543 27.4517 149.963 27.8833 149.307 28.1633C148.651 28.4433 147.939 28.5637 147.227 28.5147C144.56 28.5147 142.293 26.6147 142.293 23.048V14.9453H146.253V22.468C146.22 22.7824 146.256 23.1003 146.359 23.3993C146.46 23.6985 146.627 23.9719 146.845 24.2003C147.064 24.4287 147.329 24.6067 147.624 24.722C147.917 24.8373 148.233 24.8872 148.549 24.868C150.001 24.868 151.004 24.024 151.004 22.1493V14.9493L154.96 14.9453Z" fill="#394149"/>
<path id="Vector_12" d="M177.667 20.04V28.144H173.707V20.3827C173.707 19.0627 173.073 18.2187 171.807 18.2187C170.487 18.2187 169.747 19.1427 169.747 20.7V28.144H165.788V20.3827C165.788 19.0627 165.155 18.2187 163.887 18.2187C162.567 18.2187 161.828 19.1427 161.828 20.7V28.144H157.868V14.944H161.828V16.1573C162.239 15.6191 162.777 15.1921 163.395 14.9157C164.013 14.6392 164.691 14.522 165.365 14.5747C166.043 14.5415 166.717 14.6845 167.324 14.9897C167.929 15.2948 168.445 15.7519 168.823 16.316C169.261 15.7257 169.843 15.2564 170.512 14.9519C171.181 14.6473 171.917 14.5176 172.651 14.5747C175.681 14.576 177.667 16.74 177.667 20.04Z" fill="#394149"/>
<path id="Vector_13" d="M181.016 14.864C182.639 14.864 183.955 13.5483 183.955 11.9253C183.955 10.3024 182.639 8.98668 181.016 8.98668C179.393 8.98668 178.077 10.3024 178.077 11.9253C178.077 13.5483 179.393 14.864 181.016 14.864Z" fill="#394149"/>
</g>
</svg>
